<svg id="Layer_1" data-name="Layer 1" xmlns="http://www.w3.org/2000/svg" viewBox="0 0 99.61 94.78"><defs><style>.cls-1{fill:#595959;fill-rule:evenodd;}</style></defs><path class="cls-1" d="M99.59,5c-.4-2-2.37-2.75-4.3-2.38L76.84,9.69a3.56,3.56,0,0,0-2.34,2.37L61.21,55.47H16.92c-1.56-4.71-9.4-32.86-9.4-32.86-.78-1.94-2.75-3.12-4.3-2.37a3.61,3.61,0,0,0-2.75,4.3l10.2,35.21a3.71,3.71,0,0,0,3.53,2.74H58.86c-.81,3.16-2,7.46-2.77,9.8H13.8a3.5,3.5,0,0,0-3.53,3.5c0,2,1.56,3.15,3.53,3.15H58.86a3.76,3.76,0,0,0,3.5-2.34l4.71-16.85h0C67.85,57.81,80,18.67,80.77,16c2.75-1.15,16.86-6.65,16.86-6.65A3,3,0,0,0,100,6.19,1.37,1.37,0,0,0,99.59,5ZM15.73,81.66a7.86,7.86,0,0,0-7.8,7.86,8.09,8.09,0,0,0,7.8,7.8,8.16,8.16,0,0,0,7.87-7.8,7.92,7.92,0,0,0-7.87-7.86Zm42.32,0a7.88,7.88,0,0,0-7.83,7.86,7.84,7.84,0,0,0,15.67,0,7.89,7.89,0,0,0-7.84-7.86Z" transform="translate(-0.39 -2.54)"/></svg>