<svg id="Layer_1" data-name="Layer 1" xmlns="http://www.w3.org/2000/svg" viewBox="0 0 78.2 90.6"><defs><style>.cls-1{fill:#575555;}</style></defs><path class="cls-1" d="M39.71,59.69A27.77,27.77,0,1,1,64.3,35.1,27.8,27.8,0,0,1,39.71,59.69Zm-1-51.8A24.28,24.28,0,1,0,60.89,30.11,24.3,24.3,0,0,0,38.68,7.89Z" transform="translate(-8.93 -4.32)"/><path class="cls-1" d="M83.76,94.49l-33.13-42L53.77,50,86.88,92a1.15,1.15,0,0,1-.19,1.62l-1.36,1.07A1.12,1.12,0,0,1,83.76,94.49Z" transform="translate(-8.93 -4.32)"/></svg>